# Blender v2.93.1 OBJ File: ''
# www.blender.org
mtllib roller.mtl
o Cylinder
v -0.380296 0.218993 0.749778
v 0.405555 0.218416 0.749778
v -0.380312 0.197286 0.751916
v 0.405539 0.196708 0.751916
v -0.380327 0.176413 0.758248
v 0.405523 0.175836 0.758248
v -0.380341 0.157176 0.768530
v 0.405509 0.156599 0.768530
v -0.380353 0.140315 0.782368
v 0.405497 0.139738 0.782368
v -0.380364 0.126478 0.799229
v 0.405487 0.125900 0.799229
v -0.380371 0.116195 0.818465
v 0.405479 0.115618 0.818465
v -0.380376 0.109864 0.839338
v 0.405475 0.109286 0.839338
v -0.380377 0.107726 0.861046
v 0.405473 0.107149 0.861046
v -0.380376 0.109864 0.882753
v 0.405475 0.109286 0.882753
v -0.380371 0.116195 0.903626
v 0.405479 0.115618 0.903626
v -0.380364 0.126477 0.922862
v 0.405487 0.125900 0.922862
v -0.380353 0.140315 0.939723
v 0.405497 0.139738 0.939723
v -0.380341 0.157176 0.953561
v 0.405509 0.156599 0.953561
v -0.380327 0.176413 0.963843
v 0.405523 0.175836 0.963843
v -0.380312 0.197286 0.970175
v 0.405539 0.196708 0.970175
v -0.380296 0.218993 0.972313
v 0.405555 0.218416 0.972313
v -0.380280 0.240700 0.970175
v 0.405571 0.240123 0.970175
v -0.380264 0.261573 0.963843
v 0.405586 0.260996 0.963843
v -0.380250 0.280809 0.953561
v 0.405600 0.280232 0.953561
v -0.380238 0.297670 0.939723
v 0.405612 0.297093 0.939723
v -0.380228 0.311508 0.922862
v 0.405623 0.310931 0.922862
v -0.380220 0.321790 0.903626
v 0.405630 0.321213 0.903626
v -0.380216 0.328122 0.882753
v 0.405635 0.327545 0.882753
v -0.380214 0.330260 0.861046
v 0.405636 0.329683 0.861046
v -0.380216 0.328122 0.839338
v 0.405635 0.327545 0.839338
v -0.380220 0.321790 0.818465
v 0.405630 0.321213 0.818465
v -0.380228 0.311508 0.799229
v 0.405623 0.310931 0.799229
v -0.380238 0.297670 0.782368
v 0.405612 0.297093 0.782368
v -0.380250 0.280809 0.768530
v 0.405600 0.280232 0.768530
v -0.380264 0.261573 0.758248
v 0.405586 0.260996 0.758248
v -0.380280 0.240700 0.751916
v 0.405571 0.240123 0.751916
v 0.405555 0.218416 0.821103
v 0.405549 0.210623 0.821871
v 0.405543 0.203130 0.824144
v 0.405538 0.196225 0.827835
v 0.405534 0.190172 0.832802
v 0.405530 0.185205 0.838855
v 0.405528 0.181514 0.845760
v 0.405526 0.179241 0.853253
v 0.405525 0.178473 0.861046
v 0.405526 0.179241 0.868838
v 0.405528 0.181514 0.876331
v 0.405530 0.185205 0.883236
v 0.405534 0.190172 0.889289
v 0.405538 0.196225 0.894256
v 0.405543 0.203130 0.897947
v 0.405549 0.210623 0.900220
v 0.405555 0.218416 0.900988
v 0.405560 0.226208 0.900220
v 0.405566 0.233701 0.897947
v 0.405571 0.240606 0.894256
v 0.405575 0.246659 0.889289
v 0.405579 0.251626 0.883236
v 0.405582 0.255317 0.876331
v 0.405583 0.257590 0.868838
v 0.405584 0.258358 0.861046
v 0.405583 0.257590 0.853253
v 0.405582 0.255317 0.845760
v 0.405579 0.251626 0.838855
v 0.405575 0.246659 0.832802
v 0.405571 0.240606 0.827835
v 0.405566 0.233701 0.824144
v 0.405560 0.226208 0.821871
v -0.380296 0.218993 0.815841
v -0.380302 0.210174 0.816710
v -0.380308 0.201694 0.819282
v -0.380314 0.193878 0.823459
v -0.380319 0.187028 0.829081
v -0.380323 0.181407 0.835931
v -0.380326 0.177229 0.843747
v -0.380328 0.174657 0.852227
v -0.380329 0.173788 0.861046
v -0.380328 0.174657 0.869865
v -0.380326 0.177229 0.878345
v -0.380323 0.181407 0.886160
v -0.380319 0.187028 0.893010
v -0.380314 0.193878 0.898632
v -0.380308 0.201694 0.902809
v -0.380302 0.210174 0.905381
v -0.380296 0.218993 0.906250
v -0.380289 0.227812 0.905381
v -0.380283 0.236292 0.902809
v -0.380277 0.244107 0.898632
v -0.380272 0.250957 0.893010
v -0.380268 0.256579 0.886160
v -0.380265 0.260756 0.878345
v -0.380263 0.263329 0.869865
v -0.380263 0.264197 0.861046
v -0.380263 0.263329 0.852227
v -0.380265 0.260756 0.843747
v -0.380268 0.256579 0.835931
v -0.380272 0.250957 0.829081
v -0.380277 0.244107 0.823459
v -0.380283 0.236292 0.819282
v -0.380289 0.227812 0.816710
v -0.598426 0.219153 0.811409
v -0.598433 0.209469 0.812363
v -0.598439 0.200158 0.815188
v -0.598446 0.191576 0.819775
v -0.598451 0.184055 0.825947
v -0.598456 0.177882 0.833469
v -0.598459 0.173295 0.842051
v -0.598461 0.170470 0.851362
v -0.598462 0.169517 0.861046
v -0.598461 0.170470 0.870729
v -0.598459 0.173295 0.880041
v -0.598456 0.177882 0.888622
v -0.598451 0.184055 0.896144
v -0.598446 0.191576 0.902317
v -0.598439 0.200158 0.906904
v -0.598433 0.209469 0.909728
v -0.598426 0.219153 0.910682
v -0.598418 0.228836 0.909728
v -0.598412 0.238148 0.906904
v -0.598405 0.246729 0.902317
v -0.598400 0.254251 0.896144
v -0.598395 0.260424 0.888622
v -0.598392 0.265011 0.880041
v -0.598390 0.267835 0.870729
v -0.598389 0.268789 0.861046
v -0.598390 0.267835 0.851362
v -0.598392 0.265011 0.842051
v -0.598395 0.260424 0.833469
v -0.598400 0.254251 0.825947
v -0.598405 0.246729 0.819775
v -0.598412 0.238148 0.815188
v -0.598418 0.228836 0.812363
v 0.617266 0.218260 0.817187
v 0.617259 0.209704 0.818030
v 0.617253 0.201476 0.820526
v 0.617248 0.193894 0.824579
v 0.617243 0.187248 0.830033
v 0.617239 0.181793 0.836679
v 0.617236 0.177741 0.844262
v 0.617234 0.175245 0.852489
v 0.617233 0.174402 0.861046
v 0.617234 0.175245 0.869602
v 0.617236 0.177741 0.877829
v 0.617239 0.181793 0.885412
v 0.617243 0.187248 0.892058
v 0.617248 0.193894 0.897512
v 0.617253 0.201476 0.901565
v 0.617259 0.209704 0.904061
v 0.617266 0.218260 0.904904
v 0.617272 0.226816 0.904061
v 0.617278 0.235044 0.901565
v 0.617283 0.242626 0.897512
v 0.617288 0.249272 0.892058
v 0.617292 0.254727 0.885412
v 0.617295 0.258780 0.877829
v 0.617297 0.261275 0.869602
v 0.617298 0.262118 0.861046
v 0.617297 0.261275 0.852489
v 0.617295 0.258780 0.844262
v 0.617292 0.254727 0.836679
v 0.617288 0.249272 0.830033
v 0.617283 0.242626 0.824579
v 0.617278 0.235044 0.820526
v 0.617272 0.226816 0.818030
vt 1.000000 0.500000
vt 1.000000 1.000000
vt 0.968750 1.000000
vt 0.968750 0.500000
vt 0.937500 1.000000
vt 0.937500 0.500000
vt 0.906250 1.000000
vt 0.906250 0.500000
vt 0.875000 1.000000
vt 0.875000 0.500000
vt 0.843750 1.000000
vt 0.843750 0.500000
vt 0.812500 1.000000
vt 0.812500 0.500000
vt 0.781250 1.000000
vt 0.781250 0.500000
vt 0.750000 1.000000
vt 0.750000 0.500000
vt 0.718750 1.000000
vt 0.718750 0.500000
vt 0.687500 1.000000
vt 0.687500 0.500000
vt 0.656250 1.000000
vt 0.656250 0.500000
vt 0.625000 1.000000
vt 0.625000 0.500000
vt 0.593750 1.000000
vt 0.593750 0.500000
vt 0.562500 1.000000
vt 0.562500 0.500000
vt 0.531250 1.000000
vt 0.531250 0.500000
vt 0.500000 1.000000
vt 0.500000 0.500000
vt 0.468750 1.000000
vt 0.468750 0.500000
vt 0.437500 1.000000
vt 0.437500 0.500000
vt 0.406250 1.000000
vt 0.406250 0.500000
vt 0.375000 1.000000
vt 0.375000 0.500000
vt 0.343750 1.000000
vt 0.343750 0.500000
vt 0.312500 1.000000
vt 0.312500 0.500000
vt 0.281250 1.000000
vt 0.281250 0.500000
vt 0.250000 1.000000
vt 0.250000 0.500000
vt 0.218750 1.000000
vt 0.218750 0.500000
vt 0.187500 1.000000
vt 0.187500 0.500000
vt 0.156250 1.000000
vt 0.156250 0.500000
vt 0.125000 1.000000
vt 0.125000 0.500000
vt 0.093750 1.000000
vt 0.093750 0.500000
vt 0.062500 1.000000
vt 0.062500 0.500000
vt 0.031250 1.000000
vt 0.031250 0.500000
vt 0.000000 1.000000
vt 0.000000 0.500000
vt 0.781250 1.000000
vt 0.750000 1.000000
vt 0.500000 1.000000
vt 0.468750 1.000000
vt 0.218750 1.000000
vt 0.187500 1.000000
vt 0.906250 1.000000
vt 0.875000 1.000000
vt 0.625000 1.000000
vt 0.593750 1.000000
vt 0.343750 1.000000
vt 0.312500 1.000000
vt 0.062500 1.000000
vt 0.031250 1.000000
vt 0.718750 1.000000
vt 0.437500 1.000000
vt 0.156250 1.000000
vt 0.843750 1.000000
vt 0.562500 1.000000
vt 0.281250 1.000000
vt 1.000000 1.000000
vt 0.968750 1.000000
vt 0.000000 1.000000
vt 0.687500 1.000000
vt 0.406250 1.000000
vt 0.125000 1.000000
vt 0.812500 1.000000
vt 0.531250 1.000000
vt 0.250000 1.000000
vt 0.937500 1.000000
vt 0.656250 1.000000
vt 0.375000 1.000000
vt 0.093750 1.000000
vt 0.468750 0.500000
vt 0.500000 0.500000
vt 0.187500 0.500000
vt 0.218750 0.500000
vt 0.875000 0.500000
vt 0.906250 0.500000
vt 0.593750 0.500000
vt 0.625000 0.500000
vt 0.312500 0.500000
vt 0.343750 0.500000
vt 0.031250 0.500000
vt 0.062500 0.500000
vt 0.718750 0.500000
vt 0.750000 0.500000
vt 0.437500 0.500000
vt 0.156250 0.500000
vt 0.843750 0.500000
vt 0.562500 0.500000
vt 0.281250 0.500000
vt 0.968750 0.500000
vt 1.000000 0.500000
vt 0.000000 0.500000
vt 0.687500 0.500000
vt 0.406250 0.500000
vt 0.125000 0.500000
vt 0.812500 0.500000
vt 0.531250 0.500000
vt 0.250000 0.500000
vt 0.937500 0.500000
vt 0.656250 0.500000
vt 0.375000 0.500000
vt 0.093750 0.500000
vt 0.781250 0.500000
vt 0.250000 0.500000
vt 0.281250 0.500000
vt 0.656250 0.500000
vt 0.687500 0.500000
vt 0.218750 0.500000
vt 0.625000 0.500000
vt 0.187500 0.500000
vt 0.593750 0.500000
vt 0.156250 0.500000
vt 0.562500 0.500000
vt 0.968750 0.500000
vt 1.000000 0.500000
vt 0.125000 0.500000
vt 0.531250 0.500000
vt 0.937500 0.500000
vt 0.093750 0.500000
vt 0.500000 0.500000
vt 0.906250 0.500000
vt 0.062500 0.500000
vt 0.468750 0.500000
vt 0.875000 0.500000
vt 0.031250 0.500000
vt 0.437500 0.500000
vt 0.843750 0.500000
vt 0.000000 0.500000
vt 0.406250 0.500000
vt 0.812500 0.500000
vt 0.375000 0.500000
vt 0.781250 0.500000
vt 0.343750 0.500000
vt 0.750000 0.500000
vt 0.312500 0.500000
vt 0.718750 0.500000
vt 0.375000 1.000000
vt 0.343750 1.000000
vt 0.781250 1.000000
vt 0.750000 1.000000
vt 0.312500 1.000000
vt 0.718750 1.000000
vt 0.281250 1.000000
vt 0.687500 1.000000
vt 0.250000 1.000000
vt 0.656250 1.000000
vt 0.218750 1.000000
vt 0.625000 1.000000
vt 0.187500 1.000000
vt 0.593750 1.000000
vt 0.156250 1.000000
vt 0.562500 1.000000
vt 1.000000 1.000000
vt 0.968750 1.000000
vt 0.125000 1.000000
vt 0.531250 1.000000
vt 0.937500 1.000000
vt 0.093750 1.000000
vt 0.500000 1.000000
vt 0.906250 1.000000
vt 0.062500 1.000000
vt 0.468750 1.000000
vt 0.875000 1.000000
vt 0.031250 1.000000
vt 0.437500 1.000000
vt 0.843750 1.000000
vt 0.000000 1.000000
vt 0.406250 1.000000
vt 0.812500 1.000000
vn -0.0001 -0.0980 -0.9952
vn -0.0002 -0.2903 -0.9569
vn -0.0003 -0.4714 -0.8819
vn -0.0005 -0.6344 -0.7730
vn -0.0006 -0.7730 -0.6344
vn -0.0006 -0.8819 -0.4714
vn -0.0007 -0.9569 -0.2903
vn -0.0007 -0.9952 -0.0980
vn -0.0007 -0.9952 0.0980
vn -0.0007 -0.9569 0.2903
vn -0.0006 -0.8819 0.4714
vn -0.0006 -0.7730 0.6344
vn -0.0005 -0.6344 0.7730
vn -0.0003 -0.4714 0.8819
vn -0.0002 -0.2903 0.9569
vn -0.0001 -0.0980 0.9952
vn 0.0001 0.0980 0.9952
vn 0.0002 0.2903 0.9569
vn 0.0003 0.4714 0.8819
vn 0.0005 0.6344 0.7730
vn 0.0006 0.7730 0.6344
vn 0.0006 0.8819 0.4714
vn 0.0007 0.9569 0.2903
vn 0.0007 0.9952 0.0980
vn 0.0007 0.9952 -0.0980
vn 0.0007 0.9569 -0.2903
vn 0.0006 0.8819 -0.4714
vn 0.0006 0.7730 -0.6344
vn 0.0005 0.6344 -0.7730
vn 0.0003 0.4714 -0.8819
vn 0.0002 0.2903 -0.9569
vn 0.0001 0.0980 -0.9952
vn 1.0000 -0.0007 0.0000
vn -1.0000 0.0007 0.0000
vn 0.0209 0.9950 0.0980
vn 0.0196 -0.8818 0.4713
vn 0.0209 0.9950 -0.0980
vn 0.0196 -0.7729 0.6343
vn 0.0209 0.9567 -0.2902
vn 0.0197 -0.6343 0.7729
vn 0.0209 0.8817 -0.4713
vn 0.0199 -0.4713 0.8817
vn 0.0201 -0.0980 -0.9950
vn 0.0208 0.7728 -0.6343
vn 0.0200 -0.2902 0.9567
vn 0.0200 -0.2902 -0.9567
vn 0.0207 0.6342 -0.7729
vn 0.0201 -0.0980 0.9950
vn 0.0199 -0.4713 -0.8817
vn 0.0206 0.4713 -0.8817
vn 0.0203 0.0980 0.9950
vn 0.0197 -0.6343 -0.7729
vn 0.0204 0.2902 -0.9567
vn 0.0204 0.2902 0.9567
vn 0.0196 -0.7729 -0.6343
vn 0.0203 0.0980 -0.9950
vn 0.0206 0.4713 0.8817
vn 0.0196 -0.8818 -0.4713
vn 0.0207 0.6342 0.7729
vn 0.0195 -0.9568 -0.2902
vn 0.0208 0.7728 0.6343
vn 0.0195 -0.9950 -0.0980
vn 0.0209 0.8817 0.4713
vn 0.0195 -0.9950 0.0980
vn 0.0209 0.9567 0.2902
vn 0.0195 -0.9568 0.2902
vn -0.0178 0.7729 0.6343
vn -0.0191 -0.9950 -0.0980
vn -0.0178 0.8818 0.4713
vn -0.0191 -0.9950 0.0980
vn -0.0177 0.9568 0.2902
vn -0.0191 -0.9568 0.2902
vn -0.0177 0.9950 0.0980
vn -0.0191 -0.8818 0.4713
vn -0.0177 0.9950 -0.0980
vn -0.0190 -0.7729 0.6343
vn -0.0177 0.9568 -0.2902
vn -0.0189 -0.6343 0.7729
vn -0.0178 0.8818 -0.4713
vn -0.0188 -0.4713 0.8818
vn -0.0185 -0.0980 -0.9950
vn -0.0178 0.7729 -0.6343
vn -0.0186 -0.2902 0.9568
vn -0.0186 -0.2902 -0.9568
vn -0.0179 0.6343 -0.7729
vn -0.0185 -0.0980 0.9950
vn -0.0188 -0.4713 -0.8818
vn -0.0181 0.4713 -0.8818
vn -0.0183 0.0980 0.9950
vn -0.0189 -0.6343 -0.7729
vn -0.0182 0.2903 -0.9568
vn -0.0182 0.2903 0.9568
vn -0.0190 -0.7729 -0.6343
vn -0.0183 0.0980 -0.9950
vn -0.0181 0.4713 0.8818
vn -0.0191 -0.8818 -0.4713
vn -0.0179 0.6343 0.7729
vn -0.0191 -0.9568 -0.2902
usemtl None
s off
f 1/1/1 2/2/1 4/3/1 3/4/1
f 3/4/2 4/3/2 6/5/2 5/6/2
f 5/6/3 6/5/3 8/7/3 7/8/3
f 7/8/4 8/7/4 10/9/4 9/10/4
f 9/10/5 10/9/5 12/11/5 11/12/5
f 11/12/6 12/11/6 14/13/6 13/14/6
f 13/14/7 14/13/7 16/15/7 15/16/7
f 15/16/8 16/15/8 18/17/8 17/18/8
f 17/18/9 18/17/9 20/19/9 19/20/9
f 19/20/10 20/19/10 22/21/10 21/22/10
f 21/22/11 22/21/11 24/23/11 23/24/11
f 23/24/12 24/23/12 26/25/12 25/26/12
f 25/26/13 26/25/13 28/27/13 27/28/13
f 27/28/14 28/27/14 30/29/14 29/30/14
f 29/30/15 30/29/15 32/31/15 31/32/15
f 31/32/16 32/31/16 34/33/16 33/34/16
f 33/34/17 34/33/17 36/35/17 35/36/17
f 35/36/18 36/35/18 38/37/18 37/38/18
f 37/38/19 38/37/19 40/39/19 39/40/19
f 39/40/20 40/39/20 42/41/20 41/42/20
f 41/42/21 42/41/21 44/43/21 43/44/21
f 43/44/22 44/43/22 46/45/22 45/46/22
f 45/46/23 46/45/23 48/47/23 47/48/23
f 47/48/24 48/47/24 50/49/24 49/50/24
f 49/50/25 50/49/25 52/51/25 51/52/25
f 51/52/26 52/51/26 54/53/26 53/54/26
f 53/54/27 54/53/27 56/55/27 55/56/27
f 55/56/28 56/55/28 58/57/28 57/58/28
f 57/58/29 58/57/29 60/59/29 59/60/29
f 59/60/30 60/59/30 62/61/30 61/62/30
f 61/62/31 62/61/31 64/63/31 63/64/31
f 63/64/32 64/63/32 2/65/32 1/66/32
f 18/17/33 16/15/33 72/67/33 73/68/33
f 36/35/33 34/33/33 81/69/33 82/70/33
f 54/53/33 52/51/33 90/71/33 91/72/33
f 10/9/33 8/7/33 68/73/33 69/74/33
f 28/27/33 26/25/33 77/75/33 78/76/33
f 46/45/33 44/43/33 86/77/33 87/78/33
f 64/63/33 62/61/33 95/79/33 96/80/33
f 20/19/33 18/17/33 73/68/33 74/81/33
f 38/37/33 36/35/33 82/70/33 83/82/33
f 56/55/33 54/53/33 91/72/33 92/83/33
f 12/11/33 10/9/33 69/74/33 70/84/33
f 30/29/33 28/27/33 78/76/33 79/85/33
f 48/47/33 46/45/33 87/78/33 88/86/33
f 4/3/33 2/2/33 65/87/33 66/88/33
f 2/65/33 64/63/33 96/80/33 65/89/33
f 22/21/33 20/19/33 74/81/33 75/90/33
f 40/39/33 38/37/33 83/82/33 84/91/33
f 58/57/33 56/55/33 92/83/33 93/92/33
f 14/13/33 12/11/33 70/84/33 71/93/33
f 32/31/33 30/29/33 79/85/33 80/94/33
f 50/49/33 48/47/33 88/86/33 89/95/33
f 6/5/33 4/3/33 66/88/33 67/96/33
f 24/23/33 22/21/33 75/90/33 76/97/33
f 42/41/33 40/39/33 84/91/33 85/98/33
f 60/59/33 58/57/33 93/92/33 94/99/33
f 16/15/33 14/13/33 71/93/33 72/67/33
f 34/33/33 32/31/33 80/94/33 81/69/33
f 52/51/33 50/49/33 89/95/33 90/71/33
f 8/7/33 6/5/33 67/96/33 68/73/33
f 26/25/33 24/23/33 76/97/33 77/75/33
f 44/43/33 42/41/33 85/98/33 86/77/33
f 62/61/33 60/59/33 94/99/33 95/79/33
f 33/34/34 35/36/34 114/100/34 113/101/34
f 51/52/34 53/54/34 123/102/34 122/103/34
f 7/8/34 9/10/34 101/104/34 100/105/34
f 25/26/34 27/28/34 110/106/34 109/107/34
f 43/44/34 45/46/34 119/108/34 118/109/34
f 61/62/34 63/64/34 128/110/34 127/111/34
f 17/18/34 19/20/34 106/112/34 105/113/34
f 35/36/34 37/38/34 115/114/34 114/100/34
f 53/54/34 55/56/34 124/115/34 123/102/34
f 9/10/34 11/12/34 102/116/34 101/104/34
f 27/28/34 29/30/34 111/117/34 110/106/34
f 45/46/34 47/48/34 120/118/34 119/108/34
f 1/1/34 3/4/34 98/119/34 97/120/34
f 63/64/34 1/66/34 97/121/34 128/110/34
f 19/20/34 21/22/34 107/122/34 106/112/34
f 37/38/34 39/40/34 116/123/34 115/114/34
f 55/56/34 57/58/34 125/124/34 124/115/34
f 11/12/34 13/14/34 103/125/34 102/116/34
f 29/30/34 31/32/34 112/126/34 111/117/34
f 47/48/34 49/50/34 121/127/34 120/118/34
f 3/4/34 5/6/34 99/128/34 98/119/34
f 21/22/34 23/24/34 108/129/34 107/122/34
f 39/40/34 41/42/34 117/130/34 116/123/34
f 57/58/34 59/60/34 126/131/34 125/124/34
f 13/14/34 15/16/34 104/132/34 103/125/34
f 31/32/34 33/34/34 113/101/34 112/126/34
f 49/50/34 51/52/34 122/103/34 121/127/34
f 5/6/34 7/8/34 100/105/34 99/128/34
f 23/24/34 25/26/34 109/107/34 108/129/34
f 41/42/34 43/44/34 118/109/34 117/130/34
f 59/60/34 61/62/34 127/111/34 126/131/34
f 15/16/34 17/18/34 105/113/34 104/132/34
f 120/118/35 121/127/35 153/133/35 152/134/35
f 107/122/36 108/129/36 140/135/36 139/136/36
f 121/127/37 122/103/37 154/137/37 153/133/37
f 108/129/38 109/107/38 141/138/38 140/135/38
f 122/103/39 123/102/39 155/139/39 154/137/39
f 109/107/40 110/106/40 142/140/40 141/138/40
f 123/102/41 124/115/41 156/141/41 155/139/41
f 110/106/42 111/117/42 143/142/42 142/140/42
f 97/120/43 98/119/43 130/143/43 129/144/43
f 124/115/44 125/124/44 157/145/44 156/141/44
f 111/117/45 112/126/45 144/146/45 143/142/45
f 98/119/46 99/128/46 131/147/46 130/143/46
f 125/124/47 126/131/47 158/148/47 157/145/47
f 112/126/48 113/101/48 145/149/48 144/146/48
f 99/128/49 100/105/49 132/150/49 131/147/49
f 126/131/50 127/111/50 159/151/50 158/148/50
f 113/101/51 114/100/51 146/152/51 145/149/51
f 100/105/52 101/104/52 133/153/52 132/150/52
f 127/111/53 128/110/53 160/154/53 159/151/53
f 114/100/54 115/114/54 147/155/54 146/152/54
f 101/104/55 102/116/55 134/156/55 133/153/55
f 128/110/56 97/121/56 129/157/56 160/154/56
f 115/114/57 116/123/57 148/158/57 147/155/57
f 102/116/58 103/125/58 135/159/58 134/156/58
f 116/123/59 117/130/59 149/160/59 148/158/59
f 103/125/60 104/132/60 136/161/60 135/159/60
f 117/130/61 118/109/61 150/162/61 149/160/61
f 104/132/62 105/113/62 137/163/62 136/161/62
f 118/109/63 119/108/63 151/164/63 150/162/63
f 105/113/64 106/112/64 138/165/64 137/163/64
f 119/108/65 120/118/65 152/134/65 151/164/65
f 106/112/66 107/122/66 139/136/66 138/165/66
f 129/157/34 130/143/34 131/147/34 132/150/34 133/153/34 134/156/34 135/159/34 136/161/34 137/163/34 138/165/34 139/136/34 140/135/34 141/138/34 142/140/34 143/142/34 144/146/34 145/149/34 146/152/34 147/155/34 148/158/34 149/160/34 150/162/34 151/164/34 152/134/34 153/133/34 154/137/34 155/139/34 156/141/34 157/145/34 158/148/34 159/151/34 160/154/34
f 86/77/67 85/98/67 181/166/67 182/167/67
f 73/68/68 72/67/68 168/168/68 169/169/68
f 87/78/69 86/77/69 182/167/69 183/170/69
f 74/81/70 73/68/70 169/169/70 170/171/70
f 88/86/71 87/78/71 183/170/71 184/172/71
f 75/90/72 74/81/72 170/171/72 171/173/72
f 89/95/73 88/86/73 184/172/73 185/174/73
f 76/97/74 75/90/74 171/173/74 172/175/74
f 90/71/75 89/95/75 185/174/75 186/176/75
f 77/75/76 76/97/76 172/175/76 173/177/76
f 91/72/77 90/71/77 186/176/77 187/178/77
f 78/76/78 77/75/78 173/177/78 174/179/78
f 92/83/79 91/72/79 187/178/79 188/180/79
f 79/85/80 78/76/80 174/179/80 175/181/80
f 66/88/81 65/87/81 161/182/81 162/183/81
f 93/92/82 92/83/82 188/180/82 189/184/82
f 80/94/83 79/85/83 175/181/83 176/185/83
f 67/96/84 66/88/84 162/183/84 163/186/84
f 94/99/85 93/92/85 189/184/85 190/187/85
f 81/69/86 80/94/86 176/185/86 177/188/86
f 68/73/87 67/96/87 163/186/87 164/189/87
f 95/79/88 94/99/88 190/187/88 191/190/88
f 82/70/89 81/69/89 177/188/89 178/191/89
f 69/74/90 68/73/90 164/189/90 165/192/90
f 96/80/91 95/79/91 191/190/91 192/193/91
f 83/82/92 82/70/92 178/191/92 179/194/92
f 70/84/93 69/74/93 165/192/93 166/195/93
f 65/89/94 96/80/94 192/193/94 161/196/94
f 84/91/95 83/82/95 179/194/95 180/197/95
f 71/93/96 70/84/96 166/195/96 167/198/96
f 85/98/97 84/91/97 180/197/97 181/166/97
f 72/67/98 71/93/98 167/198/98 168/168/98
f 162/183/33 161/196/33 192/193/33 191/190/33 190/187/33 189/184/33 188/180/33 187/178/33 186/176/33 185/174/33 184/172/33 183/170/33 182/167/33 181/166/33 180/197/33 179/194/33 178/191/33 177/188/33 176/185/33 175/181/33 174/179/33 173/177/33 172/175/33 171/173/33 170/171/33 169/169/33 168/168/33 167/198/33 166/195/33 165/192/33 164/189/33 163/186/33
